<svg width="37" height="43" viewBox="0 0 37 43" fill="none" xmlns="http://www.w3.org/2000/svg">
<g clip-path="url(#clip0_24_2)">
<path d="M8.70023 4.97495L0.125488 10.0541V21.0698V32.0196L9.216 37.4285L18.3065 42.8374L25.7852 38.4179C29.9759 35.9773 34.1021 33.4048 35.1336 32.6792L36.8744 31.4259L36.7454 20.8059L36.552 10.12L28.1707 5.04091C23.5932 2.27049 19.2091 -0.0381942 18.4999 -0.0381942C17.7907 -0.0381942 13.3422 2.20453 8.70023 4.97495ZM25.076 5.30476C35.1981 11.3073 35.0047 10.186 26.3655 15.2651C22.2393 17.7057 18.6289 19.6846 18.242 19.6846C17.5328 19.6846 6.12136 12.9564 4.31615 11.4393C3.60696 10.8456 3.34907 10.2519 3.67143 10.0541C4.05826 9.92214 7.21738 8.00923 10.7633 5.83246C14.3093 3.72167 17.6618 1.94068 18.1776 1.87472C18.7578 1.87472 21.8525 3.45782 25.076 5.30476ZM11.9238 18.2994L17.5328 21.7294V30.5684C17.5328 36.3071 17.275 39.4733 16.8881 39.4733C16.5013 39.4733 12.8909 37.4944 8.82917 35.1198L1.41492 30.7003V21.9933C1.41492 17.244 1.60834 13.0883 1.86622 12.8904C2.05964 12.6266 3.15566 13.0224 4.25168 13.682C5.3477 14.3416 8.7647 16.4524 11.9238 18.2994ZM33.8442 31.4259C31.7811 33.009 20.6275 39.4733 20.0472 39.4733C19.7249 39.4733 19.467 35.3836 19.467 30.3705L19.5315 21.3336L27.0747 16.8482L34.6179 12.4287L34.8113 21.4656C35.0047 29.5789 34.8757 30.6343 33.8442 31.4259Z" fill="black"/>
<path d="M11.4081 6.42632C7.86214 8.60308 5.08986 10.582 5.2188 10.9118C5.41221 11.1756 8.44238 13.1545 11.9883 15.2653L18.371 19.0251L24.8182 15.1993C28.2997 13.0885 31.2009 11.0437 31.2654 10.7139C31.3298 10.1202 19.6605 2.66646 18.5 2.60049C18.1776 2.60049 14.954 4.31552 11.4081 6.42632ZM18.2421 8.47115C18.5644 8.47115 19.1447 7.81153 19.467 6.95402L20.0473 5.50284V6.95402C20.1118 8.53712 21.7236 9.06482 22.1749 7.74557C22.3683 7.21787 23.0775 7.34979 24.4958 8.07538C25.6563 8.66904 26.5589 9.32867 26.5589 9.46059C26.5589 9.65848 22.884 9.7904 18.371 9.7904H10.1186L11.7304 8.47115C13.4712 7.08594 14.954 6.75613 14.954 7.81153C14.954 9.19674 16.8882 8.40519 16.9526 6.95402L17.0816 5.50284L17.3395 6.95402C17.4684 7.81153 17.9197 8.47115 18.2421 8.47115ZM14.954 13.0885C14.954 14.6716 14.7606 14.6716 12.3752 13.4183C9.86076 12.0991 9.92523 11.7693 12.6975 11.7693C14.5027 11.7693 14.954 12.0331 14.954 13.0885ZM17.3395 14.8695C17.1461 15.5291 17.0171 15.0014 17.0171 13.7481C17.0171 12.4949 17.1461 11.9672 17.3395 12.5608C17.4684 13.2205 17.4684 14.2758 17.3395 14.8695ZM19.9183 14.8695C19.7249 15.5291 19.596 15.0014 19.596 13.7481C19.596 12.4949 19.7249 11.9672 19.9183 12.5608C20.0473 13.2205 20.0473 14.2758 19.9183 14.8695ZM24.7537 13.0885C22.1749 14.7376 22.0459 14.7376 22.0459 13.0885C22.0459 12.0331 22.4972 11.7693 24.4958 11.7693H26.8813L24.7537 13.0885Z" fill="black"/>
<path d="M2.70435 22.455V30.5684L8.9581 34.1963C12.4396 36.1752 15.5987 37.8902 16.05 38.0221C16.7592 38.22 16.8881 36.5709 16.7592 30.1726L16.5658 22.0592L10.1186 18.2334C6.57265 16.1226 3.47801 14.4076 3.22012 14.4076C2.89776 14.4076 2.70435 18.0355 2.70435 22.455ZM8.57127 19.4207C10.5699 20.4101 10.8278 21.8613 9.08704 22.1911C8.57127 22.2571 7.66867 21.4655 7.02395 20.3442C5.67004 18.1015 5.86346 17.9695 8.57127 19.4207ZM9.21599 27.4681C11.2146 30.9641 12.8264 33.9324 12.6975 34.0644C12.1817 34.5921 8.57127 31.7557 8.82916 31.0301C9.34493 29.5789 8.57127 28.8533 7.15289 29.5789C6.4437 29.9747 5.92793 30.0407 5.92793 29.6449C5.92793 29.3151 6.37923 28.9193 6.89501 28.6554C8.63574 27.9958 7.99103 26.7425 6.12135 27.2702C4.38061 27.666 4.38061 27.666 5.5411 26.4127C6.50818 25.2914 6.50818 25.0275 5.73452 24.4998C4.76744 23.9721 4.38061 22.9167 4.57403 21.0698C4.70297 19.6846 5.0898 20.2782 9.21599 27.4681ZM12.7619 23.3125C12.0527 23.8402 11.0212 24.3019 10.5054 24.3019C9.86071 24.236 10.0541 23.9062 11.0857 23.3125C13.2132 22.0592 14.3093 22.1252 12.7619 23.3125ZM13.729 25.6212C12.3106 26.8745 11.0857 27.3362 11.0857 26.6106C11.0857 26.2808 14.3737 24.3679 14.954 24.3679C15.1474 24.3679 14.5671 24.9616 13.729 25.6212ZM14.954 30.3705V33.2069L13.6645 31.5578C12.1817 29.6449 12.0527 28.5235 13.2132 28.0618C14.7606 27.4022 14.954 27.666 14.954 30.3705Z" fill="black"/>
<path d="M26.4299 18.2334L20.1762 21.9933L20.1117 30.0407C20.1117 34.5261 20.3051 38.1541 20.6275 38.1541C20.8854 38.1541 23.98 36.439 27.5259 34.3282L33.9731 30.5024L34.1665 22.455C34.2955 16.2545 34.1665 14.4076 33.5218 14.4735C33.0705 14.4735 29.8469 16.1886 26.4299 18.2334ZM29.4601 20.4102C28.8154 21.5975 27.9772 22.3231 27.397 22.1911C25.6563 21.8613 25.7852 20.74 27.7194 19.5526C30.2982 17.9695 30.5561 18.1015 29.4601 20.4102ZM32.3613 22.3231C32.3613 24.3679 32.1679 24.8296 31.3942 24.5658C30.0403 23.9721 30.1693 26.017 31.5877 26.9404C32.4903 27.5341 32.4258 27.6001 30.9429 27.3362C28.7509 26.8085 27.9772 27.9299 29.8469 28.9193C30.5561 29.381 31.0074 29.8428 30.8785 30.0407C30.6851 30.1726 29.9114 29.9747 29.0733 29.5789C27.7838 28.8533 27.7194 28.9193 28.0417 30.1726C28.2996 31.294 27.9128 31.9536 26.3654 32.943C25.205 33.6026 24.1089 34.1963 23.8511 34.1963C23.6576 34.1963 25.3339 30.8982 27.6549 26.9404C29.9759 22.9167 31.9745 19.6846 32.1034 19.6846C32.2324 19.6846 32.3613 20.8719 32.3613 22.3231ZM26.5589 24.4339C26.5589 25.0935 24.2379 23.9721 23.6576 22.9827C23.3998 22.5869 23.98 22.6529 24.8826 23.1146C25.7852 23.5104 26.5589 24.104 26.5589 24.4339ZM24.6247 25.951C25.6563 26.5447 25.8497 26.8745 25.205 26.9404C24.6892 26.9404 23.6576 26.4787 22.9484 25.951C21.4011 24.7637 22.4971 24.6977 24.6247 25.951ZM23.5932 30.5684C22.2393 32.7451 22.0458 32.6792 22.0458 29.9087C22.0458 27.732 22.1748 27.6001 23.3353 28.2597C24.5602 28.9193 24.5602 29.0512 23.5932 30.5684Z" fill="black"/>
</g>
<defs>
<clipPath id="clip0_24_2">
<rect width="37" height="43" fill="white"/>
</clipPath>
</defs>
</svg>
